HIERARCHY
ROOT SpineBase
{
  OFFSET 0.000000 0.000000 0.000000
  CHANNELS 6 Xposition Yposition Zposition Zrotation Xrotation Yrotation
  JOINT SpineMid
  {
    OFFSET 0.000000 4.537366 0.000000
    CHANNELS 3 Zrotation Xrotation Yrotation
    JOINT SpineShoulder
    {
      OFFSET 0.177126 3.416674 -0.905482
      CHANNELS 3 Zrotation Xrotation Yrotation
      JOINT Neck
      {
        OFFSET 0.122232 1.097133 -0.557868
        CHANNELS 3 Zrotation Xrotation Yrotation
        JOINT Head
        {
          OFFSET 1.292313 13.446753 -1.161597
          CHANNELS 3 Zrotation Xrotation Yrotation
          End Site
          {
            OFFSET 0 0 0
          }
        }
      }
      JOINT ShoulderLeft
      {
        OFFSET -6.367227 -13.080531 9.451116
        CHANNELS 3 Zrotation Xrotation Yrotation
        JOINT ElbowLeft
        {
          OFFSET -12.156905 1.087239 14.858000
          CHANNELS 3 Zrotation Xrotation Yrotation
          JOINT WristLeft
          {
            OFFSET 15.654103 -9.317869 -19.337644
            CHANNELS 3 Zrotation Xrotation Yrotation
            JOINT HandLeft
            {
              OFFSET 5.153807 -2.242040 -7.128228
              CHANNELS 3 Zrotation Xrotation Yrotation
              JOINT HandTipLeft
              {
                OFFSET 4.911889 -2.603448 -5.799791
                CHANNELS 3 Zrotation Xrotation Yrotation
                End Site
                {
                  OFFSET 0 0 0
                }
              }
              JOINT ThumbLeft
              {
                OFFSET 2.114993 1.798536 -3.620417
                CHANNELS 3 Zrotation Xrotation Yrotation
                End Site
                {
                  OFFSET 0 0 0
                }
              }
            }
          }
        }
      }
      JOINT ShoulderRight
      {
        OFFSET -8.671578 151.123013 -57.400407
        CHANNELS 3 Zrotation Xrotation Yrotation
        JOINT ElbowRight
        {
          OFFSET 4.407105 -21.063443 1.445504
          CHANNELS 3 Zrotation Xrotation Yrotation
          JOINT WristRight
          {
            OFFSET -17.565819 9.543971 -11.887267
            CHANNELS 3 Zrotation Xrotation Yrotation
            JOINT HandRight
            {
              OFFSET -5.890168 3.350211 -3.689877
              CHANNELS 3 Zrotation Xrotation Yrotation
              JOINT HandTipRight
              {
                OFFSET -5.348932 3.251207 -2.546267
                CHANNELS 3 Zrotation Xrotation Yrotation
                End Site
                {
                  OFFSET 0 0 0
                }
              }
              JOINT ThumbRight
              {
                OFFSET -2.988611 -6.008315 0.517071
                CHANNELS 3 Zrotation Xrotation Yrotation
                End Site
                {
                  OFFSET 0 0 0
                }
              }
            }
          }
        }
      }
    }
  }
  JOINT HipLeft
  {
    OFFSET -0.545956 -1.421989 -4.116667
    CHANNELS 3 Zrotation Xrotation Yrotation
    JOINT KneeLeft
    {
      OFFSET 22.303597 -10.689040 4.759416
      CHANNELS 3 Zrotation Xrotation Yrotation
      JOINT AnkleLeft
      {
        OFFSET -3.377958 -28.760075 15.833327
        CHANNELS 3 Zrotation Xrotation Yrotation
        JOINT FootLeft
        {
          OFFSET -9.959200 -4.709456 -2.416983
          CHANNELS 3 Zrotation Xrotation Yrotation
          End Site
          {
            OFFSET 0 0 0
          }
        }
      }
    }
  }
  JOINT HipRight
  {
    OFFSET 1.194074 0.152374 -0.684586
    CHANNELS 3 Zrotation Xrotation Yrotation
    JOINT KneeRight
    {
      OFFSET 8.032616 -36.694551 5.698545
      CHANNELS 3 Zrotation Xrotation Yrotation
      JOINT AnkleRight
      {
        OFFSET 4.204070 -27.947001 18.193700
        CHANNELS 3 Zrotation Xrotation Yrotation
        JOINT FootRight
        {
          OFFSET -7.506073 -5.072863 -1.731382
          CHANNELS 3 Zrotation Xrotation Yrotation
          End Site
          {
            OFFSET 0 0 0
          }
        }
      }
    }
  }
}
MOTION
Frames: 12
Frame Time: 0.033333
-33.611939 115.777881 382.405530 8.634265 12.828736 54.382805 7.214455 2.416009 -53.949559 1.067903 -0.067647 2.471820 -17.613428 4.945656 -9.861621 0.000000 0.000000 0.000000 57.987392 32.110563 -31.843296 26.084157 13.228450 -7.906722 138.481400 -72.466589 79.921871 -137.410128 16.992166 105.775931 0.000000 0.000000 0.000000 0.000000 0.000000 0.000000 -13.574481 -19.093080 -6.438018 -0.000000 0.000000 0.000000 -0.000000 0.000000 0.000000 -0.000000 0.000000 0.000000 0.000000 0.000000 0.000000 0.000000 0.000000 0.000000 -34.095161 36.517923 -54.395509 7.650626 -8.536735 -14.630154 11.924506 -19.840695 59.635741 0.000000 0.000000 0.000000 -20.632667 -1.616967 -56.879596 1.781394 5.064697 1.311773 2.754192 3.294891 -6.046304 0.000000 0.000000 0.000000
-32.445222 117.476548 380.370215 10.531380 14.546987 54.669930 7.789479 2.631364 -54.361691 1.119498 0.810470 2.747068 -16.492967 11.700568 -11.914313 0.000000 0.000000 0.000000 53.921605 30.256735 -28.277571 36.400952 6.110407 -13.142272 68.844038 -76.615962 36.927670 -134.093166 45.174637 114.617379 0.000000 0.000000 0.000000 0.000000 0.000000 0.000000 -16.256107 -21.913452 -8.079714 -0.000000 0.000000 0.000000 -0.000000 0.000000 0.000000 -0.000000 0.000000 0.000000 0.000000 0.000000 0.000000 0.000000 0.000000 0.000000 -36.248350 36.963973 -56.115860 12.441375 -10.428387 -10.346360 -15.108060 -9.900058 38.225424 0.000000 0.000000 0.000000 -23.922179 -0.891248 -57.596244 2.185406 5.763003 1.497396 3.364383 4.043401 -7.477253 0.000000 0.000000 0.000000
-52.487708 122.311438 386.050573 5.773180 31.333379 59.425187 9.335451 2.855925 -61.395796 1.449193 2.429060 0.121914 -14.657398 -8.933032 -9.618417 0.000000 0.000000 0.000000 48.596613 27.377159 -5.385349 22.391882 -12.773395 -7.185825 -81.786122 -83.201121 -82.542219 2.773849 -30.658249 97.505740 0.000000 0.000000 0.000000 0.000000 0.000000 0.000000 -10.509009 -43.194437 -3.693664 3.585425 -1.725277 1.250057 -1.467618 -0.446190 -2.619337 1.487958 1.389042 2.759832 0.000000 0.000000 0.000000 0.000000 0.000000 0.000000 -41.448233 27.209972 -72.648787 17.014054 -14.270409 -3.370405 -21.614219 -12.513089 45.278632 0.000000 0.000000 0.000000 -39.321686 -13.283976 -67.813207 -0.162054 7.288202 1.385466 4.790779 7.880108 -9.805593 0.000000 0.000000 0.000000
-48.729362 118.259552 383.682752 9.194996 10.360847 44.241650 6.214717 3.538862 -43.540819 0.555151 -0.469444 2.410396 -19.126136 24.662377 -10.729116 0.000000 0.000000 0.000000 60.613366 39.021168 -30.712184 9.808064 -14.329613 -5.903911 -14.223707 -54.788234 -27.446618 -2.138111 -59.531226 86.849407 0.000000 0.000000 0.000000 0.000000 0.000000 0.000000 -12.774751 -20.877434 -7.099955 0.212251 5.679856 3.554711 -1.689091 0.503803 -1.308254 5.809058 -0.739329 3.348566 0.000000 0.000000 0.000000 0.000000 0.000000 0.000000 -37.446129 29.538117 -49.200632 21.460552 -16.693578 -0.342195 -18.861392 -11.550637 48.433206 0.000000 0.000000 0.000000 -20.784552 -5.037960 -47.567418 2.282729 5.918846 1.857585 3.692438 5.836844 -7.683028 0.000000 0.000000 0.000000
-26.964812 112.721527 377.891631 11.742097 0.878653 56.180478 7.179610 2.008303 -53.713740 0.884371 0.791375 3.519341 -22.015610 27.946633 -11.125120 0.000000 0.000000 0.000000 56.257276 45.527558 -28.600923 20.232080 -18.793825 -14.161894 8.233562 -20.549485 -17.769567 -83.398688 -85.245254 25.342761 0.000000 0.000000 0.000000 0.000000 0.000000 0.000000 -15.618896 -10.055228 -8.489114 -2.119405 3.586200 -0.063122 7.718214 -0.778379 6.613145 -10.402809 3.215796 -6.015119 0.000000 0.000000 0.000000 0.000000 0.000000 0.000000 -27.272294 43.491784 -53.321699 26.033964 -16.285651 0.065491 -12.809965 -10.618185 46.348748 0.000000 0.000000 0.000000 -12.997842 9.057603 -56.278344 4.100141 5.366298 2.133720 1.396166 0.749752 -3.781472 0.000000 0.000000 0.000000
7.911239 104.975137 370.963196 12.586745 -5.636440 65.708275 8.965957 1.060373 -62.281816 1.679109 3.325701 3.746999 -16.853160 30.715528 -12.876275 0.000000 0.000000 0.000000 36.133199 49.129697 -7.144438 41.727948 -51.549781 -33.172316 14.345708 -31.706464 -26.827433 77.418435 -16.706644 -155.538453 0.000000 0.000000 0.000000 0.000000 0.000000 0.000000 -17.546268 8.762450 -6.268607 -5.306956 -10.320332 -9.219743 2.652365 0.844117 5.629194 -5.656936 -0.446690 -5.137807 0.000000 0.000000 0.000000 0.000000 0.000000 0.000000 -14.296964 56.570257 -34.429852 29.131479 -31.413615 -19.701419 -16.418755 -15.301817 46.676387 0.000000 0.000000 0.000000 7.486015 22.920834 -66.029925 6.057592 -4.346836 0.560343 -5.722147 -17.543616 15.736012 0.000000 0.000000 0.000000
48.458490 93.191140 358.183043 12.468426 -18.318342 75.297986 10.329728 -0.268342 -70.355113 2.331136 5.468597 3.643102 -12.264667 45.035466 -14.600327 0.000000 0.000000 0.000000 12.082187 48.376367 18.367523 -74.267066 -41.731721 -159.744372 11.794592 63.967414 -48.404774 157.616576 8.451681 143.037036 0.000000 0.000000 0.000000 0.000000 0.000000 0.000000 -20.769431 49.200013 2.943453 -12.801391 -35.519703 -28.210400 2.289154 1.041156 7.782645 -7.964631 -3.863082 -14.768453 0.000000 0.000000 0.000000 0.000000 0.000000 0.000000 18.806545 59.342374 -26.029462 17.863375 -40.435030 -45.204285 -2.003206 -15.754058 35.252757 0.000000 0.000000 0.000000 33.506385 28.086937 -79.532244 7.729679 -9.446097 0.120403 -20.340132 -30.524416 23.652847 0.000000 0.000000 0.000000
92.736924 80.785087 342.498110 12.555444 -20.839060 79.795682 10.881413 -1.390400 -74.446730 2.976005 6.224503 3.781038 -8.671536 51.183863 -18.016942 0.000000 0.000000 0.000000 -7.668085 32.052704 36.131345 -66.515223 -7.929682 -162.330293 5.287942 72.595055 -54.375496 138.427895 -10.518249 126.433014 0.000000 0.000000 0.000000 0.000000 0.000000 0.000000 -166.429478 59.541206 154.784327 -86.352800 -67.199197 -126.749919 3.620399 -0.055911 10.249475 -8.138382 -5.489856 -21.534452 0.000000 0.000000 0.000000 0.000000 0.000000 0.000000 45.505806 45.884032 -6.941390 -11.218361 -34.994077 -84.296344 21.332117 -19.831970 11.028385 0.000000 0.000000 0.000000 36.808695 22.287761 -82.730760 3.164225 -0.125954 -0.531670 -13.864153 -49.031774 37.353946 0.000000 0.000000 0.000000
135.267738 69.818954 328.727095 11.714100 -16.980866 80.912830 11.725665 -1.943182 -76.294554 3.645872 6.411039 3.918863 -5.373033 50.846010 -20.900935 0.000000 0.000000 0.000000 -17.174872 11.741145 40.631763 -60.472615 11.592011 -156.607448 -73.278992 86.682987 25.925991 139.299754 -16.972761 128.954189 0.000000 0.000000 0.000000 0.000000 0.000000 0.000000 -173.248835 44.650401 163.396243 -99.957485 -57.850487 -152.484830 4.831139 -1.426235 12.263352 -7.194607 -6.380278 -26.540622 0.000000 0.000000 0.000000 0.000000 0.000000 0.000000 74.659488 11.355892 13.377891 -31.444429 2.537175 -99.214802 73.869974 -37.026013 -15.786290 0.000000 0.000000 0.000000 36.042363 21.674711 -83.720764 4.536463 4.436399 0.751612 13.277670 -61.636698 68.096550 0.000000 0.000000 0.000000
168.937839 62.532069 318.180982 8.700583 -0.259575 80.277011 11.796293 -2.405221 -77.896749 4.113162 7.260097 3.448145 -3.405121 34.927722 -18.015445 0.000000 0.000000 0.000000 -21.026786 -13.102345 39.435954 -57.941859 14.259583 -143.906812 -15.296845 48.598519 -21.574872 99.847751 -46.127642 100.236705 0.000000 0.000000 0.000000 0.000000 0.000000 0.000000 -159.241470 65.368555 147.032093 -82.306941 -55.595260 -137.633896 5.456129 -2.224787 13.941184 -7.667691 -5.413237 -27.860501 0.000000 0.000000 0.000000 0.000000 0.000000 0.000000 131.237459 -54.022484 63.058648 -86.435693 63.156851 -27.277170 71.844881 -44.975044 -19.123146 0.000000 0.000000 0.000000 22.228286 30.436740 -85.665361 19.166668 5.227028 7.832960 64.007605 -42.703614 114.627517 0.000000 0.000000 0.000000
191.501045 56.428153 307.767329 7.853181 5.297508 79.400276 11.938931 -2.298615 -77.615127 4.163022 8.130619 3.062321 -1.577722 33.280012 -17.747066 0.000000 0.000000 0.000000 -23.485965 -24.231482 35.835669 -53.026808 14.666050 -149.230801 -22.744976 49.379978 -11.890566 105.472014 -49.245999 96.761553 0.000000 0.000000 0.000000 0.000000 0.000000 0.000000 -157.914447 65.496836 146.967739 -81.085136 -51.667193 -140.678587 7.572768 -3.839468 13.084899 -9.280745 -3.805956 -29.604126 0.000000 0.000000 0.000000 0.000000 0.000000 0.000000 -105.412035 -43.366704 169.877756 -138.629757 32.851299 68.862062 94.239310 -41.371907 5.756121 0.000000 0.000000 0.000000 41.569775 53.946704 -105.074372 48.369246 -7.968091 22.846939 102.215320 -2.280936 74.638012 0.000000 0.000000 0.000000
195.859769 57.289381 305.516794 5.547887 14.385566 77.506174 12.042802 -2.003875 -76.579872 4.283454 8.597859 2.523897 0.583832 24.278927 -13.452096 0.000000 0.000000 0.000000 -24.426857 -36.767507 33.967130 -57.998019 18.035378 -136.373055 -16.390981 42.230167 -15.749141 87.279338 -54.479672 83.586629 0.000000 0.000000 0.000000 0.000000 0.000000 0.000000 -108.007619 75.400809 95.767520 -68.612282 -50.278971 -122.885247 3.573678 -3.054765 11.758254 -2.006854 -8.103412 -28.634280 0.000000 0.000000 0.000000 0.000000 0.000000 0.000000 -74.818305 -17.824996 -164.920235 -122.978724 22.152269 94.999740 101.839629 -35.173590 15.114973 0.000000 0.000000 0.000000 146.053579 73.788545 109.172811 97.153529 30.388101 27.896007 120.025744 -19.074360 20.738407 0.000000 0.000000 0.000000
